<svg xmlns="http://www.w3.org/2000/svg" width="20.587" height="22.645" viewBox="0 0 20.587 22.645">
    <defs>
        <style>
            .cls-1{fill:#282c47}
        </style>
    </defs>
    <path id="Path_530" d="M64.058 51.98a6.431 6.431 0 0 1-3.219-.864 6.522 6.522 0 0 1-2.311-2.273l-.023-.039H52.4a2.46 2.46 0 0 1-2.468-2.473V31.826a2.482 2.482 0 0 1 2.468-2.491h7.672a.4.4 0 0 1 .289.123l4.839 5.081a.42.42 0 0 1 .116.273v4.381l.064.013a6.455 6.455 0 0 1-1.322 12.774zm0-12.116a5.665 5.665 0 1 0 5.665 5.665 5.671 5.671 0 0 0-5.66-5.664zM52.4 48.019h5.71l-.047-.111a6.442 6.442 0 0 1-.281-3.895l.025-.1H53.7a.4.4 0 1 1 0-.791h4.369l.021-.049a7.431 7.431 0 0 1 .828-1.458L59 41.49h-5.3a.4.4 0 1 1 0-.791h6.066l.023-.019a6.543 6.543 0 0 1 4.282-1.616c.066 0 .131 0 .2.009s.116.008.178.01h.083v-3.871h-2.841A2.016 2.016 0 0 1 59.68 33.2v-3.07H52.4a1.691 1.691 0 0 0-1.677 1.7v14.503a1.689 1.689 0 0 0 1.629 1.681zM60.471 33.2a1.224 1.224 0 0 0 1.221 1.225h2.292l-3.512-3.7zm4.09 15.139c-1.6-1.86-2.021-2.36-2.079-2.432v-.456a3.38 3.38 0 0 0 .4.021c.8 0 1.3-.266 1.5-.789a.659.659 0 0 0 .047-.245v-.04h-2.12a19.4 19.4 0 0 1 .314-.449h1.717v-.065a1.034 1.034 0 0 0-.584-.478 1.806 1.806 0 0 0-.551-.1h-.884c.214-.318.286-.419.309-.449h3.5c-.208.319-.281.42-.306.449H64.79l.056.066a1.217 1.217 0 0 1 .259.545l.007.032h1.008c-.209.314-.281.417-.3.449h-.681v.037a1.486 1.486 0 0 1-.246.617 1.522 1.522 0 0 1-.567.474 2.289 2.289 0 0 1-.983.247H63.3v.047c0 .022 0 .052.244.335l1.76 2.123v.061z" class="cls-1" data-name="Path 530" transform="translate(-49.936 -29.335)"/>
</svg>
