<svg xmlns="http://www.w3.org/2000/svg" width="17.137" height="17.137" viewBox="0 0 17.137 17.137">
    <defs>
        <style>
            .cls-1{fill:#304877}
        </style>
    </defs>
    <g id="Group_636" data-name="Group 636" transform="translate(-42.85 -37.707)">
        <path id="Path_708" d="M51.419 37.707a8.569 8.569 0 1 0 8.569 8.569 8.578 8.578 0 0 0-8.569-8.569zm.488 16.136v-.892a.488.488 0 0 0-.976 0v.892a7.59 7.59 0 0 1-7.079-7.079h.892a.488.488 0 0 0 0-.976h-.892a7.59 7.59 0 0 1 7.079-7.079v.891a.488.488 0 1 0 .976 0v-.892a7.591 7.591 0 0 1 7.079 7.079h-.892a.488.488 0 0 0 0 .976h.892a7.59 7.59 0 0 1-7.079 7.079z" class="cls-1" data-name="Path 708"/>
        <path id="Path_709" d="M236.6 113.462a.516.516 0 0 0 .019-.131.776.776 0 0 0-.115-.4l2.177-4.664a.487.487 0 0 0-.441-.694.492.492 0 0 0-.444.281l-2.176 4.662a.834.834 0 0 0 .159 1.653.515.515 0 0 0 .131-.019l2.686 2.686a.488.488 0 1 0 .69-.69z" class="cls-1" data-name="Path 709" transform="translate(-184.364 -67.056)"/>
    </g>
</svg>
