<svg xmlns="http://www.w3.org/2000/svg" width="24.375" height="26.717" viewBox="0 0 24.375 26.717">
    <path id="prefix__Path_820" d="M686.227 101.815a7.367 7.367 0 0 1-6.271-3.556l-.034-.057h-6.957a2.788 2.788 0 0 1-2.782-2.787V78.907a2.8 2.8 0 0 1 2.782-2.809h8.73a.434.434 0 0 1 .31.131l5.506 5.782a.451.451 0 0 1 .125.292v5.007l.094.019a7.319 7.319 0 0 1-1.5 14.485zm.005-13.787A6.473 6.473 0 1 0 692.7 94.5a6.48 6.48 0 0 0-6.468-6.472zm-13.386 9.327l.117.006h6.537l-.068-.163a7.309 7.309 0 0 1-.319-4.416l.036-.146h-4.71a.424.424 0 1 1 0-.847h4.99l.03-.072a8.439 8.439 0 0 1 .939-1.654l.132-.185h-6.091a.423.423 0 1 1 0-.847h6.913l.033-.029a7.42 7.42 0 0 1 4.856-1.832c.075 0 .149.005.228.01.063 0 .129.009.2.011h.121v-4.458h-3.255a2.268 2.268 0 0 1-2.262-2.268v-3.52h-8.307a1.951 1.951 0 0 0-1.935 1.962v16.508a1.94 1.94 0 0 0 1.817 1.937zm9.271-16.891a1.42 1.42 0 0 0 1.415 1.421h2.67l-4.085-4.3zm-2.2 6.7a.424.424 0 0 0 0-.847h-5.479a.424.424 0 1 0 0 .847zm4.7 10.569l5.946-4.862a.352.352 0 1 0-.446-.545l-5.669 4.636-2.064-2.608a.352.352 0 0 0-.552.437l2.286 2.888a.352.352 0 0 0 .238.132h.038a.352.352 0 0 0 .222-.074z" data-name="Path 820" transform="translate(-669.682 -75.598)" style="fill:#df0e6f;stroke:transparent"/>
</svg>
