<svg xmlns="http://www.w3.org/2000/svg" width="27.041" height="23.326" viewBox="0 0 27.041 23.326">
    <defs>
        <style>
            .cls-1{fill:#282c47}
        </style>
    </defs>
    <path id="employment-verification-icon" d="M95.338 138.676a1.736 1.736 0 0 1-1.775-1.775v-8.035a.539.539 0 1 1 1.078 0v8.034a.666.666 0 0 0 .7.7H117.6a.666.666 0 0 0 .7-.7v-8.035a.539.539 0 0 1 1.078 0v8.035a1.736 1.736 0 0 1-1.775 1.775zm12.986-6.8a.5.5 0 0 0 .539-.539v-2.048l9.768-2.181a1.771 1.771 0 0 0 1.36-1.708v-3.955a1.736 1.736 0 0 0-1.775-1.775H94.725a1.736 1.736 0 0 0-1.775 1.775v3.955a1.757 1.757 0 0 0 1.36 1.708l9.768 2.181v2.048a.5.5 0 0 0 .539.539zm-3.176-3.715h2.637v2.639h-2.637zm-.539-1.07a.5.5 0 0 0-.539.539v.6l-9.495-2.123a.683.683 0 0 1-.564-.7v-3.955a.666.666 0 0 1 .7-.7h23.492a.666.666 0 0 1 .7.7v3.955a.683.683 0 0 1-.556.7l-9.5 2.123v-.6a.5.5 0 0 0-.539-.539zm6.717-9.354v-.622a1.728 1.728 0 0 0-1.766-1.766h-6.186a1.736 1.736 0 0 0-1.775 1.775v.622a.539.539 0 0 0 1.078 0v-.622a.666.666 0 0 1 .7-.7h6.186a.666.666 0 0 1 .7.7v.622a.5.5 0 0 0 .539.539.493.493 0 0 0 .524-.547z" class="cls-1" transform="translate(-92.95 -115.35)"/>
</svg>
