<svg xmlns="http://www.w3.org/2000/svg" width="19.186" height="31.286" viewBox="0 0 19.186 31.286">
    <defs>
        <style>
            .cls-1{fill:#009bde}.cls-2{fill:rgba(82,82,82,.8);stroke:rgba(0,0,0,0)}.cls-3{fill:#282c47}
        </style>
    </defs>
    <g id="Group_275" data-name="Group 275" transform="translate(-154.199 -89.997)">
        <path id="Path_499" d="M154.752 121.029V110.5l1.925-1.633 4.364-.936v2.334l1.589 1.726 1.134.415 2.107-1.238 1-1.437v-1.8l4.978 1.388.884 1.181.237 5.794v4.732z" class="cls-1" data-name="Path 499"/>
        <path id="Path_498" d="M158.985 105.659a9.359 9.359 0 0 0 0-1.88c.012-1.949-.648-6.084.2-6.109a65.606 65.606 0 0 1 9.021.5 62.394 62.394 0 0 1 .374 7.493c.1 1.128 1.321-.3 1.777-.3 1.871-.543.469-10.284.469-10.284s-2.127-3.225-3.43-3.632-7.891-3.395-10.853 4.129c-.208 7.975-.229 7.418-.176 9.052s1.297 1.056 2.618 1.031z" class="cls-2" data-name="Path 498"/>
        <path id="Path_430" d="M154.746 193.744a.547.547 0 0 1-.547-.547v-9.492a2.826 2.826 0 0 1 2.258-2.753l4.508-.9a.967.967 0 0 0 .773-.942v-.914l-.118-.056a5.1 5.1 0 0 1-2.9-4.58v-3.015a.547.547 0 0 1 1.093 0v3.015a3.977 3.977 0 1 0 7.953 0v-2.47h-5.484a.547.547 0 1 1 0-1.093h5.277a1.3 1.3 0 0 1 1.3 1.3v2.261a5.1 5.1 0 0 1-2.9 4.579l-.118.056v.913a.966.966 0 0 0 .772.943l4.509.9a2.826 2.826 0 0 1 2.257 2.754v9.454a.547.547 0 1 1-1.093 0v-3.977h-1.916v3.977a.547.547 0 0 1-1.093 0v-7.539a.547.547 0 0 1 1.093 0v2.469h1.922v-4.384a1.725 1.725 0 0 0-1.378-1.682l-3.56-.712v.539c0 1.964-3 3.361-3.339 3.514l-.223.1-.223-.1c-.342-.153-3.339-1.55-3.339-3.514v-.539l-3.559.712a1.725 1.725 0 0 0-1.379 1.681v9.498a.547.547 0 0 1-.546.544zm8.085-14.636a2.065 2.065 0 0 1-1.37 1.934l-.138.049v.76c0 .788 1.23 1.778 2.374 2.363l.095.049.095-.049a7.849 7.849 0 0 0 1.551-1.042 1.967 1.967 0 0 0 .824-1.321v-.76l-.138-.049a2.065 2.065 0 0 1-1.37-1.935v-.566l-.237.035a5 5 0 0 1-1.448 0l-.237-.035z" class="cls-3" data-name="Path 430" transform="translate(0 -72.461)"/>
        <path id="Path_431" d="M202.725 107.114a.55.55 0 0 1-.437-.217.546.546 0 1 1 .764.107.536.536 0 0 1-.324.11z" class="cls-3" data-name="Path 431" transform="translate(-43.458 -14.515)"/>
        <path id="Path_432" d="M172.333 142.121a2.138 2.138 0 0 1-2.134-2.134v-5.952a8.089 8.089 0 0 1 1.1-4.068l.005-.009a.546.546 0 0 1 .748-.19.547.547 0 0 1 .191.749 7 7 0 0 0-.949 3.519v5.952a1.046 1.046 0 0 0 1.04 1.04h.675a.547.547 0 1 1 0 1.093z" class="cls-3" data-name="Path 432" transform="translate(-14.492 -35.953)"/>
        <path id="Path_433" d="M238.527 106.168a.547.547 0 1 1 0-1.093h.675a1.047 1.047 0 0 0 1.04-1.04v-5.953a6.988 6.988 0 0 0-8.682-6.782.584.584 0 0 1-.133.016.547.547 0 0 1-.13-1.077 8.091 8.091 0 0 1 10.038 7.847v5.952a2.138 2.138 0 0 1-2.134 2.134z" class="cls-3" data-name="Path 433" transform="translate(-69.458)"/>
        <path id="Path_434" d="M186.746 338.628a.547.547 0 0 1-.547-.547v-7.539a.547.547 0 1 1 1.093 0v7.539a.547.547 0 0 1-.546.547z" class="cls-3" data-name="Path 434" transform="translate(-28.985 -217.383)"/>
        <path id="Path_435" d="M250.744 355.092a.506.506 0 0 1-.1-.011.541.541 0 0 1-.1-.031.554.554 0 0 1-.094-.05.579.579 0 0 1-.085-.069.533.533 0 0 1-.066-.081.579.579 0 0 1-.052-.1.6.6 0 0 1-.032-.1.554.554 0 0 1 0-.212.634.634 0 0 1 .032-.1.542.542 0 0 1 .05-.093.511.511 0 0 1 .149-.15.56.56 0 0 1 .1-.052.568.568 0 0 1 .209-.041.553.553 0 0 1 .3.092.531.531 0 0 1 .085.068.571.571 0 0 1 .067.083.53.53 0 0 1 .081.2.52.52 0 0 1 0 .212.529.529 0 0 1-.082.2.587.587 0 0 1-.069.085.507.507 0 0 1-.081.065.556.556 0 0 1-.3.093z" class="cls-3" data-name="Path 435" transform="translate(-86.952 -239.124)"/>
        <path id="Path_436" d="M250.744 387.092a.51.51 0 0 1-.1-.011.539.539 0 0 1-.1-.031.552.552 0 0 1-.094-.05.515.515 0 0 1-.15-.149.58.58 0 0 1-.052-.1.607.607 0 0 1-.032-.1.554.554 0 0 1 0-.212.636.636 0 0 1 .032-.1.542.542 0 0 1 .05-.093.511.511 0 0 1 .149-.15.558.558 0 0 1 .1-.052.543.543 0 0 1 .1-.03.537.537 0 0 1 .107-.011.559.559 0 0 1 .387.16.571.571 0 0 1 .067.083.549.549 0 0 1 .051.095.543.543 0 0 1 .03.1.52.52 0 0 1 0 .212.548.548 0 0 1-.031.1.554.554 0 0 1-.05.094.586.586 0 0 1-.069.085.507.507 0 0 1-.081.065.557.557 0 0 1-.3.093z" class="cls-3" data-name="Path 436" transform="translate(-86.952 -268.109)"/>
    </g>
</svg>
