<svg xmlns="http://www.w3.org/2000/svg" width="20.392" height="26.598" viewBox="0 0 20.392 26.598">
    <defs>
        <style>
            .cls-1{fill:#fff}
        </style>
    </defs>
    <g id="Group_421" data-name="Group 421" transform="translate(-143.776 -91.402)">
        <path id="Path_473" d="M129.073 71.225a1.321 1.321 0 0 0 .171-.334 1.292 1.292 0 0 1 .51.2 1.951 1.951 0 0 0 1.042.334 2.016 2.016 0 0 0 .35-.032 1.862 1.862 0 0 0 1.206-.759 1.015 1.015 0 0 1 1.476-.26 1.862 1.862 0 0 0 1.393.3l-.154-.873a1.014 1.014 0 0 1-.8-.2 1.887 1.887 0 0 0-2.6.458 1.015 1.015 0 0 1-.681.456.879.879 0 0 1-.387-.009 1.763 1.763 0 0 0 .709-.376 1.862 1.862 0 0 0 .665-1.261 1.013 1.013 0 0 1 .362-.735 1 1 0 0 1 .786-.229 1.824 1.824 0 0 0 1.357-.436l-.571-.679a1.059 1.059 0 0 1-.787.228 1.887 1.887 0 0 0-2.022 1.7 1.014 1.014 0 0 1-1.147.963 1.968 1.968 0 0 0-.816.109 1.329 1.329 0 0 0-.515-.5l1.982-3.96a.443.443 0 0 0-.4-.642 1.144 1.144 0 0 1-.83-.346 2.044 2.044 0 0 0-2.77 0 1.172 1.172 0 0 1-1.663 0 2.047 2.047 0 0 0-2.772 0 1.148 1.148 0 0 1-.832.346.443.443 0 0 0-.4.642l1.98 3.96a1.315 1.315 0 0 0-.446 1.933 9.317 9.317 0 0 0-6.9 8.982v7.979A2.219 2.219 0 0 0 117.8 90.4h15.959a2.219 2.219 0 0 0 2.217-2.217v-7.976a9.317 9.317 0 0 0-6.903-8.982zm-6.343-6.188a1.173 1.173 0 0 1 1.664 0 2.046 2.046 0 0 0 2.771 0 1.17 1.17 0 0 1 1.662 0 2.357 2.357 0 0 0 .719.435l-1.826 3.652h-3.885l-1.825-3.651a2.368 2.368 0 0 0 .72-.435zm.831 5.86a.443.443 0 0 1 0-.887h4.433a.443.443 0 0 1 0 .887zm11.526 17.289a1.33 1.33 0 0 1-1.33 1.33H117.8a1.33 1.33 0 0 1-1.33-1.33v-7.979a8.432 8.432 0 0 1 8.423-8.423h1.773a8.432 8.432 0 0 1 8.423 8.423z" class="cls-1" data-name="Path 473" transform="translate(28.195 27.597)"/>
        <path id="Path_474" d="M222.819 265.39h5.476v.011a8.512 8.512 0 0 1-.546.8h-1.463a1.911 1.911 0 0 1 .41.859h1.56c.019 0 .028.011.028.023q-.524.785-.535.786h-1.013a2.323 2.323 0 0 1-.387.973 2.377 2.377 0 0 1-.894.746 3.533 3.533 0 0 1-1.525.381v.011a2.11 2.11 0 0 0 .359.472l2.7 3.262v.154c0 .015-.01.023-.028.023h-1.19q-3.21-3.74-3.21-3.757v-.757l.011-.028a4.864 4.864 0 0 0 .666.04q1.8 0 2.237-1.167a.942.942 0 0 0 .068-.353h-3.253a.02.02 0 0 1-.023-.023q.541-.786.552-.785h2.581v-.011a1.516 1.516 0 0 0-.859-.7 2.685 2.685 0 0 0-.82-.148h-1.446v-.029q.525-.783.544-.783z" class="cls-1" data-name="Path 474" transform="translate(-71.259 -160.322)"/>
    </g>
</svg>
