<svg xmlns="http://www.w3.org/2000/svg" width="24.802" height="24.802" viewBox="0 0 24.802 24.802">
    <defs>
        <style>
            .cls-1{fill:rgba(40,44,71,.5);fill-rule:evenodd}
        </style>
    </defs>
    <path id="Path_552" d="M85.759 89.4a.544.544 0 0 1 0-1.087h2.556v-2.554a.544.544 0 1 1 1.087 0v3.1a.544.544 0 0 1-.544.544zm-20.615 0a.544.544 0 0 1-.544-.544v-3.1a.544.544 0 1 1 1.087 0v2.556h2.556a.544.544 0 0 1 0 1.087zm18.107-2.435c-2.468 0-3.348-2.025-3.348-3.919v-.359l-.3.2a5.69 5.69 0 0 1-2.691 1.066 5.484 5.484 0 0 1-2.516-.894l-.294-.175v.342c0 1.863-1.035 3.743-3.348 3.743a.544.544 0 0 1 0-1.087 2.263 2.263 0 0 0 2.261-2.261v-1.54l-.069-.058A7.564 7.564 0 0 1 71 79.581l-.028-.058-.057-.029a3.06 3.06 0 0 1-1.419-1.815l-.044-.135h-3.546a.544.544 0 1 1 0-1.087h3.382l.007-.188a3.065 3.065 0 0 1 .9-2.177l.064-.058v-.086a6.745 6.745 0 1 1 13.486 0v.086l.064.058a3.067 3.067 0 0 1 .9 2.175l.007.188H88.1a.544.544 0 1 1 0 1.087h-3.546l-.044.134a2.976 2.976 0 0 1-1.616 1.906l-.063.025-.034.059a8.792 8.792 0 0 1-1.743 2.094l-.064.058v1.8a2.263 2.263 0 0 0 2.261 2.261.544.544 0 0 1 0 1.087zm-12.516-9.13a1.668 1.668 0 0 0 .769.742h.008a.541.541 0 0 1 .356.305 6.209 6.209 0 0 0 1.679 2.229 9.593 9.593 0 0 0 1.887 1.28 3.784 3.784 0 0 0 1.477.47 4.272 4.272 0 0 0 1.863-.738 9.02 9.02 0 0 0 3.2-3.214.542.542 0 0 1 .383-.3 1.544 1.544 0 0 0 .91-.78l.164-.29h-12.86zm.611-3.991v.16c.006.391 0 .62-.271.776a1.864 1.864 0 0 0-.7 1.473l-.011.2h13.27l-.011-.2a1.9 1.9 0 0 0-.646-1.441l-.01-.007-.011-.006a.542.542 0 0 1-.3-.485v-.19A7.421 7.421 0 0 0 82.6 73l-.026-.189-.189.022a7.274 7.274 0 0 1-.858.051 7.181 7.181 0 0 1-4.042-1.242l-.13-.088-.113.109a7.193 7.193 0 0 1-5 2.017c-.227 0-.458-.011-.685-.033l-.212-.02zM77 68.122a5.664 5.664 0 0 0-5.466 4.212l-.059.223.23.02c.178.016.359.024.538.024a6.132 6.132 0 0 0 5.805-4.153l.075-.218-.228-.036a5.684 5.684 0 0 0-.895-.072zm2.091.631a7.194 7.194 0 0 1-.909 1.816l-.115.166.171.108a6.153 6.153 0 0 0 3.306.96c.159 0 .319-.006.477-.019l.273-.021-.11-.251a5.682 5.682 0 0 0-2.827-2.876l-.2-.091zm9.768.034a.544.544 0 0 1-.544-.544v-2.556h-2.556a.544.544 0 1 1 0-1.087h3.1a.544.544 0 0 1 .544.544v3.1a.544.544 0 0 1-.545.543zm-23.715 0a.544.544 0 0 1-.544-.544v-3.1a.544.544 0 0 1 .544-.544h3.1a.544.544 0 1 1 0 1.087h-2.557v2.556a.544.544 0 0 1-.543.545z" class="cls-1" data-name="Path 552" transform="translate(-64.6 -64.6)"/>
</svg>
