<svg xmlns="http://www.w3.org/2000/svg" width="23.578" height="27.196" viewBox="0 0 23.578 27.196">
    <defs>
        <style>
            .cls-1{fill:#282c47}
        </style>
    </defs>
    <path id="Path_486" d="M72.11 69.6a1.274 1.274 0 0 1-1.288-1.288V53.638a1.274 1.274 0 0 1 1.288-1.288h5.973l4.9-9.1a1.693 1.693 0 0 1 1.485-.848 1.549 1.549 0 0 1 .737.181l8.339 4.517a1.659 1.659 0 0 1 .666 2.223l-2.941 5.447.082.018a1.311 1.311 0 0 1 1.005 1.257v3.921h.624a.459.459 0 0 1 .464.464v3.923a.459.459 0 0 1-.464.464h-.624v3.493a1.274 1.274 0 0 1-1.288 1.29zm-.033-13.914a.361.361 0 0 0-.36.36V68.31a.361.361 0 0 0 .36.36h18.958a.361.361 0 0 0 .36-.36v-3.492h-2.107a1.521 1.521 0 0 1-1.519-1.518v-1.815a1.521 1.521 0 0 1 1.519-1.519h2.075v-3.921a.361.361 0 0 0-.36-.36zm17.211 5.209a.585.585 0 0 0-.591.591V63.3a.585.585 0 0 0 .591.591h3.2v-3zm-17.211-7.617a.379.379 0 0 0-.36.327v1.176l.084-.028a.86.86 0 0 1 .277-.03h4.687l.8-1.446zm11.433 1.479h6.673l3.183-5.9a.677.677 0 0 0 .048-.554.6.6 0 0 0-.341-.358l-4.537-2.469zm-2.671 0h1.629l5.258-9.75-1.233-.653zm3.616-11.442a.73.73 0 0 0-.631.368l-5.985 11.074H79.8l5.851-10.87-.879-.492a.646.646 0 0 0-.317-.08z" class="cls-1" data-name="Path 486" transform="translate(-70.822 -42.402)"/>
</svg>
