<svg xmlns="http://www.w3.org/2000/svg" width="32.398" height="27.524" viewBox="0 0 32.398 27.524">
    <defs>
        <style>
            .cls-1{fill:#df0e6f}.cls-2{fill:none;stroke:#df0e6f;stroke-linecap:round;stroke-linejoin:round}
        </style>
    </defs>
    <g id="Group_642" data-name="Group 642" transform="translate(-34.424 -72.405)">
        <path id="Path_710" d="M37.087 99.929a2.671 2.671 0 0 1-2.663-2.663V80.481a2.671 2.671 0 0 1 2.663-2.663h9.273l.005-.038a1.42 1.42 0 0 1 .789-1.084l8.335-4.043a2.513 2.513 0 0 1 2.178 0L66 76.7a1.438 1.438 0 0 1 .819 1.294v19.271a2.671 2.671 0 0 1-2.663 2.663H37.087zm0-21.116a1.672 1.672 0 0 0-1.668 1.668v16.784a1.672 1.672 0 0 0 1.668 1.668h27.072a1.672 1.672 0 0 0 1.668-1.668v-8.851l-.084-.017a15.92 15.92 0 0 1-4.925 6.468l-3.21 2.542a1.673 1.673 0 0 1-2.058 0l-3.21-2.542a15.205 15.205 0 0 1-6-11.912v-4.14zM56.579 73.4a1.517 1.517 0 0 0-.654.149l-8.336 4.043a.447.447 0 0 0-.258.4v4.964a14.218 14.218 0 0 0 5.626 11.132l3.211 2.542a.669.669 0 0 0 .822 0l3.21-2.546a14.218 14.218 0 0 0 5.627-11.131v-4.964a.447.447 0 0 0-.259-.4l-8.335-4.042a1.518 1.518 0 0 0-.654-.147z" class="cls-1" data-name="Path 710"/>
        <path id="Path_713" d="M73.629 366.543a.5.5 0 1 1 0-1h8.54a.5.5 0 1 1 0 1z" class="cls-1" data-name="Path 713" transform="translate(-35.877 -270.712)"/>
        <path id="Path_714" d="M71.951 202.034a.494.494 0 0 1-.352-.146.5.5 0 0 1-.146-.352v-.629a2.047 2.047 0 0 1 1.085-1.805l1.757-.944a.208.208 0 0 0 .112-.182v-.542l-.008-.011a4.427 4.427 0 0 1-.644-1.315v-.011l-.008-.008a1.075 1.075 0 0 1-.321-.764v-.776a1.062 1.062 0 0 1 .189-.6l.008-.011v-.909a2.009 2.009 0 0 1 .479-1.475 2.745 2.745 0 0 1 1.952-.807c.076 0 .153 0 .229.01s.16-.009.236-.009a2.748 2.748 0 0 1 1.954.809 2.006 2.006 0 0 1 .477 1.47v.913l.008.011a1.062 1.062 0 0 1 .189.6v.776a1.061 1.061 0 0 1-.5.908l-.013.008-.005.014a4.7 4.7 0 0 1-.575 1.075c-.026.036-.051.07-.076.1l-.009.012v.549a.209.209 0 0 0 .119.186l1.867.92.014.007a2.052 2.052 0 0 1 1.15 1.838v.591a.5.5 0 0 1-.5.5zm4.138-10.3a1.884 1.884 0 0 0-1.238.464 1.031 1.031 0 0 0-.241.727.533.533 0 0 1 0 .069v1.123a.5.5 0 0 1-.167.372l-.014.013-.016.845.019.013a.6.6 0 0 1 .241.341 3.343 3.343 0 0 0 .607 1.242.507.507 0 0 1 .118.322v.709a1.2 1.2 0 0 1-.635 1.058l-1.757.945a1.054 1.054 0 0 0-.561.928v.131h7.668v-.093a1.058 1.058 0 0 0-.6-.946l-1.88-.927a1.2 1.2 0 0 1-.674-1.079v-.728a.5.5 0 0 1 .126-.331 2.23 2.23 0 0 0 .146-.186 3.733 3.733 0 0 0 .515-1.024.5.5 0 0 1 .328-.321l.03-.009.038-.864-.015-.014a.574.574 0 0 1-.183-.4V193a.5.5 0 0 1 0-.066 1.024 1.024 0 0 0-.245-.734 3.36 3.36 0 0 0-1.622-.459z" class="cls-1" data-name="Path 714" transform="translate(-34.322 -109.686)"/>
        <path id="Path_715" d="M52.349 84.712l3.171 3.326 5.72-5.223" class="cls-2" data-name="Path 715"/>
    </g>
</svg>
