<svg xmlns="http://www.w3.org/2000/svg" width="26.966" height="24.496" viewBox="0 0 26.966 24.496">
    <defs>
        <style>
            .cls-1{fill:#4b70b8}
        </style>
    </defs>
    <path id="Path_466" d="M70.1 106.34a1.752 1.752 0 0 1-1.75-1.75V88.534a1.752 1.752 0 0 1 1.75-1.75h6.793a.515.515 0 1 1 0 1.03H70.1a.721.721 0 0 0-.72.72v16.056a.721.721 0 0 0 .72.72h23.467a.721.721 0 0 0 .72-.72V88.534a.721.721 0 0 0-.72-.72h-6.792a.515.515 0 1 1 0-1.03h6.793a1.752 1.752 0 0 1 1.75 1.75v16.056a1.752 1.752 0 0 1-1.75 1.75zm1.853-3.088a.516.516 0 0 1-.515-.515V101.5a2.989 2.989 0 0 1 2.985-2.985h2.47a2.988 2.988 0 0 1 2.985 2.985v1.235a.516.516 0 0 1-.515.515zm2.47-3.705a1.957 1.957 0 0 0-1.955 1.955v.72h6.38v-.72a1.957 1.957 0 0 0-1.955-1.955zm8.028.618a.515.515 0 1 1 0-1.03h4.94a.515.515 0 1 1 0 1.03zm6.175-2.47a.515.515 0 1 1 0-1.03h3.088a.515.515 0 0 1 0 1.03zm-6.175 0a.515.515 0 1 1 0-1.03h3.705a.515.515 0 1 1 0 1.03zm-6.793 0a2.37 2.37 0 0 1-2.368-2.368v-1.235a1.752 1.752 0 0 1 1.75-1.75h1.235a1.752 1.752 0 0 1 1.75 1.75v1.235a2.37 2.37 0 0 1-2.366 2.368zm-.618-4.323a.721.721 0 0 0-.72.72v1.235a1.337 1.337 0 1 0 2.675 0v-1.235a.721.721 0 0 0-.72-.72zm15.44 1.853a.515.515 0 1 1 0-1.03h1.235a.515.515 0 0 1 0 1.03zm-8.028 0a.515.515 0 1 1 0-1.03h5.558a.515.515 0 1 1 0 1.03zm-4.94-4.94a.515.515 0 1 1 0-1.03h1.337v-5.66a1.752 1.752 0 0 1 1.75-1.75h2.47a1.752 1.752 0 0 1 1.75 1.75V87.3a.515.515 0 0 1-1.03 0v-3.706a.721.721 0 0 0-.72-.72H80.6a.721.721 0 0 0-.72.72v5.66h6.278a.515.515 0 0 1 0 1.03zm4.323-4.94a.515.515 0 1 1 .515-.515.516.516 0 0 1-.516.514z" class="cls-1" data-name="Path 466" transform="translate(-68.351 -81.844)"/>
</svg>
