<svg xmlns="http://www.w3.org/2000/svg" width="28.717" height="26.846" viewBox="0 0 28.717 26.846">
    <defs>
        <style>
            .prefix__cls-1{fill:rgba(40,44,71,.5);stroke:transparent}
        </style>
    </defs>
    <g id="prefix__Group_934" data-name="Group 934" transform="translate(-166.642 -944.078)">
        <path id="prefix__Path_841" d="M762.056 498.509a1.8 1.8 0 0 1-1.8-1.8v-1.389a.406.406 0 0 1 .406-.406h.986V481.4a2.268 2.268 0 0 1 2.262-2.261h1.45v-1.489h-2.378a.406.406 0 0 1-.406-.406v-2.319a2.268 2.268 0 0 1 2.261-2.261h15.772a2.268 2.268 0 0 1 2.261 2.262v4.217h1.45a2.268 2.268 0 0 1 2.261 2.262v13.511h.986a.406.406 0 0 1 .406.406v1.392a1.8 1.8 0 0 1-1.8 1.8zm-.986-1.8a.987.987 0 0 0 .986.986h24.122a.987.987 0 0 0 .986-.986v-.986H761.07zM782.873 481h.522a1.335 1.335 0 0 1 1.334 1.334v12.583h1.044V481.4a1.451 1.451 0 0 0-1.45-1.45h-1.45zm0 13.917h1.044v-12.586a.522.522 0 0 0-.522-.522h-.522zm-16.7 0h15.888v-19.993a1.451 1.451 0 0 0-1.45-1.45h-14.438zm-1.334-13.1a.522.522 0 0 0-.522.522v12.583h1.044v-13.1zm-.928-1.856a1.451 1.451 0 0 0-1.45 1.45v13.511h1.044v-12.591a1.335 1.335 0 0 1 1.334-1.331h.522v-1.044zm.928-6.479a1.451 1.451 0 0 0-1.45 1.45v1.914h1.972v-3.363z" class="prefix__cls-1" data-name="Path 841" transform="translate(-593.116 471.915)"/>
        <path id="prefix__Path_842" d="M222.819 265.39h5.476v.011a8.512 8.512 0 0 1-.546.8h-1.463a1.911 1.911 0 0 1 .41.859h1.56c.019 0 .028.011.028.023q-.524.785-.535.786h-1.013a2.323 2.323 0 0 1-.387.973 2.377 2.377 0 0 1-.894.746 3.533 3.533 0 0 1-1.525.381v.011a2.11 2.11 0 0 0 .359.472l2.7 3.262v.154c0 .015-.01.023-.028.023h-1.19q-3.21-3.74-3.21-3.757v-.757l.011-.028a4.864 4.864 0 0 0 .666.04q1.8 0 2.237-1.167a.942.942 0 0 0 .068-.353h-3.253a.02.02 0 0 1-.023-.023q.541-.786.552-.785h2.581v-.011a1.516 1.516 0 0 0-.859-.7 2.685 2.685 0 0 0-.82-.148h-1.446v-.029q.525-.783.544-.783z" class="prefix__cls-1" data-name="Path 842" transform="translate(-44.034 687.678)"/>
    </g>
</svg>
