<svg xmlns="http://www.w3.org/2000/svg" width="25.57" height="25.57" viewBox="0 0 25.57 25.57">
    <defs>
        <style>
            .cls-1{fill:#df0e6f}
        </style>
    </defs>
    <g id="loan-amount-icon" transform="translate(-415 -119.186)">
        <path id="Path_416" d="M586.463 31.57a.463.463 0 0 1-.463-.461v-6.564a.463.463 0 0 1 .463-.461h3.107l.814-1.031a6.466 6.466 0 0 1 3.037-2.04l.534-.168-.429-.36A8.21 8.21 0 0 1 598.808 6a8.3 8.3 0 0 1 2.192.3l.081.022.081-.022a8.3 8.3 0 0 1 2.194-.3 8.205 8.205 0 1 1-.01 16.411c-.112 0-.225 0-.337-.007l-.309-.012-.01.309a1.958 1.958 0 0 1-1.96 1.862h-1.875a1.149 1.149 0 1 0 0 2.3h6.156a.925.925 0 0 0 .648-.268l2.365-2.359a2.082 2.082 0 0 1 2.923-.012l.01.012.014.011a2.069 2.069 0 0 1-.012 2.914l-3.769 3.76a2.221 2.221 0 0 1-1.579.652zm.463-.923h18.688a1.3 1.3 0 0 0 .923-.381l3.769-3.76a1.147 1.147 0 0 0-1.623-1.621l-2.365 2.359a1.86 1.86 0 0 1-1.3.539h-6.156a2.071 2.071 0 1 1 0-4.142h1.875a1.024 1.024 0 0 0 1.034-.978.942.942 0 0 0-.25-.708 1.488 1.488 0 0 0-1.085-.328c-.095 0-.185 0-.273.005H595.382a5.55 5.55 0 0 0-4.273 2l-.945 1.2a.461.461 0 0 1-.364.176h-2.869zm13.624-9.937a1.982 1.982 0 0 1 1.628.618l.075.08.109.015a7.488 7.488 0 0 0 .989.066 7.281 7.281 0 1 0-5.131-12.475A7.283 7.283 0 0 0 600 20.679l.066.034h.275zm-2.12-13.772a7.278 7.278 0 0 0-2.956 13.741l.066.034h2.734l-.564-.531a8.188 8.188 0 0 1 .912-12.682l.879-.614z" class="cls-1" data-name="Path 416" transform="translate(-171 113.186)"/>
        <path id="Path_496" d="M.376-7.29h4.7v.01a7.285 7.285 0 0 1-.476.68H3.35a1.639 1.639 0 0 1 .352.737h1.337q.024 0 .024.02-.449.674-.459.674h-.869a1.993 1.993 0 0 1-.332.835 2.04 2.04 0 0 1-.767.64 3.031 3.031 0 0 1-1.309.327v.01a1.81 1.81 0 0 0 .308.405l2.319 2.8v.132q0 .02-.024.02H2.91Q.156-3.208.156-3.223v-.649l.01-.028a4.175 4.175 0 0 0 .571.034q1.543 0 1.919-1a.808.808 0 0 0 .059-.3H-.078a.017.017 0 0 1-.02-.02q.464-.674.474-.674h2.217v-.01a1.3 1.3 0 0 0-.737-.6 2.3 2.3 0 0 0-.7-.127H-.088v-.024q.449-.669.464-.669z" class="cls-1" data-name="Path 496" transform="translate(430.05 130.445)"/>
    </g>
</svg>
