<svg xmlns="http://www.w3.org/2000/svg" width="35.229" height="62.407" viewBox="0 0 35.229 62.407">
    <defs>
        <style>
            .cls-1{fill:#282c47}
        </style>
    </defs>
    <path id="Path_555" d="M155.169 60.353a.89.89 0 1 1 0-1.779h10.453a.89.89 0 1 1 0 1.779zm6.524 54.356a2.731 2.731 0 0 0 2.728-2.727v-.505a2.731 2.731 0 0 0-2.727-2.728h-2.6a2.731 2.731 0 0 0-2.728 2.728v.505a2.73 2.73 0 0 0 2.727 2.727zm0-4.181a.95.95 0 0 1 .949.949v.505a.949.949 0 0 1-.948.948h-2.6a.949.949 0 0 1-.949-.948v-.505a.95.95 0 0 1 .949-.949zm12.694 7.317a3.627 3.627 0 0 0 3.623-3.622V59.061a3.627 3.627 0 0 0-3.622-3.623H146.4a3.627 3.627 0 0 0-3.623 3.623v55.161a3.627 3.627 0 0 0 3.623 3.623zm-29.827-10.453h31.67v6.83a1.845 1.845 0 0 1-1.843 1.844H146.4a1.845 1.845 0 0 1-1.844-1.843zm0-43.9h31.67v42.123h-31.67zm29.827-6.272a1.846 1.846 0 0 1 1.844 1.844v2.646h-31.67v-2.649a1.846 1.846 0 0 1 1.844-1.844z" class="cls-1" data-name="Path 555" transform="translate(-142.781 -55.438)"/>
</svg>
