<svg xmlns="http://www.w3.org/2000/svg" width="54.036" height="47.567" viewBox="0 0 54.036 47.567">
    <defs>
        <style>
            .cls-1,.cls-2{fill:none;stroke-linecap:round;stroke-width:1.5px}.cls-1{stroke:#4b70b8}.cls-2{stroke:#a8d5fe}.cls-3{fill:#4b70b8}.cls-4{fill:#a8d5fe}.cls-5{fill:#334e80}.cls-6{fill:#20b274}.cls-7{fill:#fff}
        </style>
    </defs>
    <g id="Group_635" data-name="Group 635" transform="translate(-240.75 -310.781)">
        <path id="Line_53" d="M10.551 0H0" class="cls-1" data-name="Line 53" transform="translate(241.5 349.072)"/>
        <path id="Line_54" d="M6.331 0H0" class="cls-2" data-name="Line 54" transform="translate(247.831 341.796)"/>
        <g id="Group_691" data-name="Group 691" transform="translate(153.08 261.804)">
            <g id="Group_689" data-name="Group 689" transform="translate(95.736 56.911)">
                <path id="Path_759" d="M138.68 300.453l-.543 5.17a1.96 1.96 0 0 1-1.9 1.723H97.288a1.522 1.522 0 0 1-1.542-1.723l.543-5.17z" class="cls-3" data-name="Path 759" transform="translate(-95.736 -276.328)"/>
                <path id="Path_760" d="M144.819 112.933l-2.354 22.4h-42.39l2.354-22.4a1.96 1.96 0 0 1 1.9-1.723h38.944a1.522 1.522 0 0 1 1.546 1.723z" class="cls-4" data-name="Path 760" transform="translate(-99.521 -111.21)"/>
                <path id="Path_761" d="M188.089 398.52h-22.4a3.923 3.923 0 0 1 3.809-3.446h15.509a3.045 3.045 0 0 1 3.082 3.446z" class="cls-3" data-name="Path 761" transform="translate(-156.771 -358.887)"/>
                <path id="Path_762" d="M211.073 359.692h-15.509a3.922 3.922 0 0 0 3.809-3.446l.181-1.723h8.616l-.181 1.723a3.045 3.045 0 0 0 3.084 3.446z" class="cls-3" data-name="Path 762" transform="translate(-182.838 -323.505)"/>
                <path id="Path_763" d="M217.1 320.729a.981.981 0 0 0-.952.862.762.762 0 0 0 .771.862.981.981 0 0 0 .952-.862.762.762 0 0 0-.771-.862z" class="cls-5" data-name="Path 763" transform="translate(-200.797 -294.02)"/>
                <path id="Path_764" d="M249.309 320.729h-5.17a.98.98 0 0 0-.952.862.761.761 0 0 0 .771.862h5.17a.98.98 0 0 0 .952-.862.761.761 0 0 0-.771-.862z" class="cls-5" data-name="Path 764" transform="translate(-224.386 -294.02)"/>
            </g>
            <g id="Group_690" data-name="Group 690" transform="translate(116.697 48.977)">
                <path id="Path_709" d="M284.679 54.132a.941.941 0 0 1 .472 1.027l-1.064 6.033a22.2 22.2 0 0 1-9.537 14l-4.45 3.089a1.413 1.413 0 0 1-1.75 0l-3.358-3.089a15.019 15.019 0 0 1-4.6-14l1.063-6.031a1.44 1.44 0 0 1 .834-1.027l11-4.914a2.431 2.431 0 0 1 2.119 0z" class="cls-6" data-name="Path 709" transform="translate(-260.159 -48.977)"/>
                <ellipse id="Ellipse_79" cx="6.453" cy="5.413" class="cls-7" data-name="Ellipse 79" rx="6.453" ry="5.413" transform="rotate(-41.766 18.566 1.662)"/>
                <path id="Path_710" d="M332.69 136.082a.545.545 0 0 1-.433-.193l-.887-1.077a.683.683 0 0 1 .165-.933.658.658 0 0 1 .933 0l.5.612 3.253-2.766a.658.658 0 0 1 .933 0 .683.683 0 0 1-.165.933l-3.8 3.23a.776.776 0 0 1-.499.194z" class="cls-6" data-name="Path 710" transform="translate(-322.187 -121.008)"/>
            </g>
        </g>
        <path id="Line_58" d="M6.331 0H0" class="cls-1" data-name="Line 58" transform="translate(245.831 345.796)"/>
    </g>
</svg>
