<svg xmlns="http://www.w3.org/2000/svg" width="21.547" height="19.906" viewBox="0 0 21.547 19.906">
    <defs>
        <style>
            .cls-1{fill:#282c47}
        </style>
    </defs>
    <path id="Path_527" d="M60.5 56.423H40.978a1.01 1.01 0 0 0-1.01 1.01v14.814a.337.337 0 0 0 .337.337h7.669l-.539 1.725H46.7a.337.337 0 0 0-.337.337v1.01h-.673v.673h10.1v-.673h-.673v-1.01a.337.337 0 0 0-.337-.337h-.734l-.539-1.725h7.67a.337.337 0 0 0 .337-.337V57.433a1.01 1.01 0 0 0-1.014-1.01zm-6.729 18.559h.673v.673h-7.406v-.673h6.733zm-5.649-.673l.538-1.725h4.162l.539 1.725zm12.719-2.4h-20.2V68.88h20.2zM42.325 59.79v-1.01h16.833v1.01h-7.407v.673h7.407v7.743H42.325v-7.743h7.407v-.673zm18.517 8.417h-1.01v-9.764a.337.337 0 0 0-.337-.337H41.988a.337.337 0 0 0-.337.337v9.763h-1.01V57.433a.337.337 0 0 1 .337-.337H60.5a.337.337 0 0 1 .337.337z" class="cls-1" data-name="Path 527" transform="translate(-39.968 -56.423)"/>
</svg>
