<svg xmlns="http://www.w3.org/2000/svg" width="57.973" height="57.973" viewBox="0 0 57.973 57.973">
    <defs>
        <style>
            .cls-1{fill:#ff0}.cls-2{fill:#ff0a00}.cls-3{fill:#9e248d}.cls-4{fill:#fff}
        </style>
    </defs>
    <g id="Group_419" data-name="Group 419" transform="translate(-15.24 -13.291)">
        <g id="Group_390" data-name="Group 390" transform="rotate(180 25.504 22.162)">
            <circle id="Ellipse_34" cx="6.487" cy="6.487" r="6.487" class="cls-1" data-name="Ellipse 34" transform="translate(.223 .223)"/>
            <g id="Group_389" data-name="Group 389">
                <path id="Path_519" d="M.258 4.666A.258.258 0 0 1 0 4.408a.261.261 0 0 1 0-.045A5.382 5.382 0 0 1 4.363 0a.258.258 0 1 1 .089.508 4.865 4.865 0 0 0-3.94 3.945.257.257 0 0 1-.254.213z" class="cls-2" data-name="Path 519" transform="translate(1.412 1.412)"/>
                <path id="Path_520" d="M.258 4.667a.258.258 0 0 1-.044-.512A4.842 4.842 0 0 0 2.8 2.805 4.841 4.841 0 0 0 4.154.215.258.258 0 0 1 4.663.3a5.356 5.356 0 0 1-1.495 2.87A5.356 5.356 0 0 1 .3 4.663a.256.256 0 0 1-.045 0z" class="cls-2" data-name="Path 520" transform="translate(7.342 7.34)"/>
                <path id="Path_521" d="M.258.516A.258.258 0 1 1 .516.258a.258.258 0 0 1-.258.258z" class="cls-2" data-name="Path 521" transform="translate(1.335 6.452)"/>
                <path id="Path_522" d="M.258.516A.258.258 0 1 1 .516.258a.258.258 0 0 1-.258.258z" class="cls-2" data-name="Path 522" transform="translate(6.452 1.335)"/>
                <path id="Path_523" d="M.258.516A.258.258 0 1 1 .516.258a.258.258 0 0 1-.258.258z" class="cls-2" data-name="Path 523" transform="translate(11.569 6.452)"/>
                <path id="Path_524" d="M.258.516A.258.258 0 1 1 .516.258a.258.258 0 0 1-.258.258z" class="cls-2" data-name="Path 524" transform="translate(6.452 11.569)"/>
                <path id="Path_525" d="M6.71 13.42A6.71 6.71 0 0 1 1.965 1.965a6.71 6.71 0 0 1 9.489 9.489 6.666 6.666 0 0 1-4.726 1.966zm0-12.9a6.194 6.194 0 1 0 4.38 1.81A6.153 6.153 0 0 0 6.727.516z" class="cls-2" data-name="Path 525"/>
            </g>
        </g>
        <path id="Path_526" d="M25.806 44.51c8.675.166 9.639-.212 14.35.661a50.607 50.607 0 0 0 11.4 2.794 47.848 47.848 0 0 0 6.426.417l.784-21H25.881z" class="cls-3" data-name="Path 526" transform="translate(1.942 2.589)"/>
        <path id="Path_514" d="M111.24 47.109V33.582a12.525 12.525 0 0 1 11.047-12.464l-3.22-6.429a.966.966 0 0 1 .869-1.4h17.392a.966.966 0 0 1 .865 1.4l-3.217 6.429a12.573 12.573 0 0 1 11.048 12.464v17.392h-1.932V33.582a10.641 10.641 0 0 0-10.628-10.628H123.8a10.613 10.613 0 0 0-10.628 10.628v13.527zm13.16-26.088h8.468l2.9-5.8H121.5z" class="cls-3" data-name="Path 514" transform="translate(-84.405)"/>
        <path id="Path_515" d="M310.938 114.136a6.7 6.7 0 0 0-1.69-.694l.483-1.871a8.719 8.719 0 0 1 2.175.892z" class="cls-3" data-name="Path 515" transform="translate(-258.498 -86.411)"/>
        <path id="Path_516" d="M338.219 139.759h-1.932v-3.865a6.712 6.712 0 0 0-2.054-4.85l1.346-1.386a8.627 8.627 0 0 1 2.641 6.236z" class="cls-3" data-name="Path 516" transform="translate(-280.465 -102.313)"/>
        <path id="Path_517" d="M70.458 317.454l-16.4 8.947a12.558 12.558 0 0 1-6.02 1.539H16.206a.966.966 0 0 1-.966-.966v-17.393a.966.966 0 0 1 .966-.966H23.6l.11-.086a15.291 15.291 0 0 1 3.726-2.142 15.671 15.671 0 0 1 14.292 1.262h7.329a4.831 4.831 0 0 1 4.61 6.28l11.944-5.985a5.169 5.169 0 0 1 5.474.524 5.313 5.313 0 0 1 2.128 4.244v.106a5.266 5.266 0 0 1-2.755 4.636zm-47.488-6.907h-5.8v15.46h5.8zm48.311 2.165a3.413 3.413 0 0 0-1.4-2.735 3.233 3.233 0 0 0-3.4-.305l-15.055 7.536a.957.957 0 0 1-.432.1H36.5v-1.932h12.558a2.9 2.9 0 0 0 0-5.8h-7.614a.975.975 0 0 1-.533-.16 13.738 13.738 0 0 0-12.754-1.243 13.417 13.417 0 0 0-3.255 1.871v15.957h23.132a10.625 10.625 0 0 0 5.094-1.3l16.408-8.948a3.335 3.335 0 0 0 1.745-2.938z" class="cls-4" data-name="Path 517" transform="translate(0 -256.675)"/>
        <path id="Path_518" d="M216.216 164.208h8.209v.017a12.74 12.74 0 0 1-.819 1.195h-2.193a2.864 2.864 0 0 1 .614 1.288h2.338q.043.009.043.034-.785 1.178-.8 1.178h-1.519a3.483 3.483 0 0 1-.58 1.459 3.564 3.564 0 0 1-1.34 1.118 5.3 5.3 0 0 1-2.287.572v.017a3.163 3.163 0 0 0 .538.708l4.053 4.889v.23c0 .023-.014.034-.043.034h-1.783q-4.813-5.606-4.813-5.632v-1.135l.017-.043a7.289 7.289 0 0 0 1 .06q2.7 0 3.354-1.749a1.413 1.413 0 0 0 .1-.529h-4.881a.03.03 0 0 1-.034-.034q.811-1.178.828-1.178h3.874v-.017a2.271 2.271 0 0 0-1.288-1.05 4.021 4.021 0 0 0-1.229-.222h-2.167v-.043q.782-1.167.808-1.167z" class="cls-4" data-name="Path 518" transform="translate(-175.975 -132.69)"/>
    </g>
</svg>
