<svg xmlns="http://www.w3.org/2000/svg" width="17.928" height="20.244" viewBox="0 0 17.928 20.244">
    <defs>
        <style>
            .cls-1{fill:#4b70b8}
        </style>
    </defs>
    <g id="Group_352" data-name="Group 352" transform="translate(-31.504)">
        <path id="Path_491" d="M118.436 259.411c0-.545-.379-.87-1.047-.87a2.286 2.286 0 0 0-.554.053v1.75a2.077 2.077 0 0 0 .448.035c.717 0 1.153-.361 1.153-.968z" class="cls-1" data-name="Path 491" transform="translate(-82.196 -249.039)"/>
        <path id="Path_492" d="M256.963 259.019a2.79 2.79 0 0 0-.607.053v3.878a2.433 2.433 0 0 0 .466.027 1.838 1.838 0 0 0 2.005-2.076 1.7 1.7 0 0 0-1.864-1.882z" class="cls-1" data-name="Path 492" transform="translate(-216.588 -249.499)"/>
        <path id="Path_493" d="M48.3 7.241h-.486V4.9a.343.343 0 0 0 0-.044.39.39 0 0 0-.094-.257L43.81.136a.394.394 0 0 0-.079-.066L43.7.051a.409.409 0 0 0-.078-.033L43.6.011A.4.4 0 0 0 43.511 0h-9.592a.8.8 0 0 0-.794.794v6.447h-.486A1.135 1.135 0 0 0 31.5 8.376v5.9a1.135 1.135 0 0 0 1.135 1.135h.486v4.039a.8.8 0 0 0 .794.794h13.1a.8.8 0 0 0 .794-.794v-4.039h.491a1.135 1.135 0 0 0 1.135-1.135v-5.9A1.135 1.135 0 0 0 48.3 7.241zM33.919.794h9.2v4.062a.4.4 0 0 0 .4.4h3.507v1.985h-13.1zm9.746 10.564a3 3 0 0 1-.986 2.4 4.253 4.253 0 0 1-2.734.765 11.652 11.652 0 0 1-1.522-.088V8.614a11.994 11.994 0 0 1 1.812-.123 3.816 3.816 0 0 1 2.427.633 2.623 2.623 0 0 1 1.002 2.234zm-10.352 3.1V8.614a11.018 11.018 0 0 1 1.812-.123 2.842 2.842 0 0 1 1.812.475 1.732 1.732 0 0 1 .633 1.372 1.892 1.892 0 0 1-.545 1.407 2.748 2.748 0 0 1-1.926.625 3.356 3.356 0 0 1-.457-.027v2.12h-1.33zm13.706 4.773h-13.1v-3.82h13.1v3.824zm1.15-9.6H45.89v1.354h2.129v1.091H45.89v2.383h-1.345V8.535h3.623z" class="cls-1" data-name="Path 493"/>
    </g>
</svg>
