<svg xmlns="http://www.w3.org/2000/svg" width="16.539" height="16.539" viewBox="0 0 16.539 16.539">
    <defs>
        <style>
            .cls-1{fill:rgba(40,44,71,.3)}
        </style>
    </defs>
    <g id="Group_349" data-name="Group 349" transform="translate(-85.433 -85.433)">
        <path id="Path_487" d="M146.165 85.433h-11.306a1.455 1.455 0 0 0-1.454 1.454v1.486h11.111a2.136 2.136 0 0 1 2.134 2.134V96.9a2.136 2.136 0 0 1-2.134 2.134H133.4v1.486a1.455 1.455 0 0 0 1.454 1.454h11.306a1.455 1.455 0 0 0 1.454-1.454V86.887a1.455 1.455 0 0 0-1.449-1.454z" class="cls-1" data-name="Path 487" transform="translate(-45.646)"/>
        <path id="Path_488" d="M229.006 226.018h-.323v2.907h.323a.808.808 0 0 0 .808-.808v-1.292a.808.808 0 0 0-.808-.807z" class="cls-1" data-name="Path 488" transform="translate(-136.305 -133.769)"/>
        <path id="Path_489" d="M145.883 226.018h-.483v1.292h.485a.646.646 0 1 0 0-1.292z" class="cls-1" data-name="Path 489" transform="translate(-57.058 -133.769)"/>
        <path id="Path_490" d="M100.034 173.61v-6.393a1.166 1.166 0 0 0-1.165-1.165H86.6a1.166 1.166 0 0 0-1.165 1.165v6.393a1.166 1.166 0 0 0 1.165 1.164h12.269a1.166 1.166 0 0 0 1.165-1.164zm-11.209-2.389h-.485v1.131a.485.485 0 0 1-.969 0v-3.876a.485.485 0 0 1 .485-.485h.969a1.615 1.615 0 1 1 0 3.23zm5.653-.161a1.779 1.779 0 0 1-1.777 1.777h-.808a.485.485 0 0 1-.485-.485v-3.876a.485.485 0 0 1 .485-.485h.807a1.779 1.779 0 0 1 1.777 1.777zm3.133-2.1h-1.2v.969h.969a.485.485 0 1 1 0 .969h-.969v1.454a.485.485 0 0 1-.969 0v-3.876a.485.485 0 0 1 .485-.485h1.68a.485.485 0 1 1 0 .969z" class="cls-1" data-name="Path 490" transform="translate(0 -76.711)"/>
    </g>
</svg>
