<svg version="1.0" xmlns="http://www.w3.org/2000/svg"
 width="12" height="12" viewBox="0 0 344.000000 344.000000"
 preserveAspectRatio="xMidYMid meet">
<g transform="translate(0.000000,344.000000) scale(0.100000,-0.100000)"
fill="#3f98e6" stroke="none">
<path d="M383 3076 c-35 -17 -60 -38 -79 -65 -26 -39 -27 -45 -20 -124 49
-592 260 -1117 637 -1587 101 -127 283 -310 399 -403 466 -374 1058 -606 1560
-610 196 -2 206 2 237 93 20 61 21 84 22 406 l1 341 -29 41 c-35 47 -44 49
-301 87 -108 16 -197 35 -255 55 -201 71 -178 67 -225 36 -23 -15 -109 -93
-191 -174 l-151 -146 -56 29 c-134 70 -322 212 -482 362 -120 112 -390 456
-390 495 0 6 57 70 126 144 70 73 145 157 167 186 38 51 39 55 34 113 -3 33
-17 87 -30 121 -37 89 -117 412 -117 473 0 58 -10 82 -48 124 l-26 27 -365 0
c-366 0 -366 0 -418 -24z"/>
</g>
</svg>
