<svg xmlns="http://www.w3.org/2000/svg" width="27.58" height="23.778" viewBox="0 0 27.58 23.778">
    <defs>
        <style>
            .cls-1{fill:rgba(40,44,71,.5)}
        </style>
    </defs>
    <g id="employment-icon-deselected" transform="translate(-623 -120.186)">
        <circle id="Ellipse_15" cx="1" cy="1" r="1" class="cls-1" data-name="Ellipse 15" transform="translate(635.79 141.964)"/>
        <path id="Path_417" d="M25.964 40.844h-6.787v-3.229A1.617 1.617 0 0 0 17.561 36h-7.542A1.617 1.617 0 0 0 8.4 37.615v3.229H1.616A1.617 1.617 0 0 0 0 42.459v15.608a1.617 1.617 0 0 0 1.616 1.615h9.75a.538.538 0 1 0 0-1.076h-9.75a.539.539 0 0 1-.539-.538V47.3l4.74 3.552a3.8 3.8 0 0 0 2.262.753h3.555v1.076a2.155 2.155 0 0 0 4.309 0v-1.072H19.5a3.8 3.8 0 0 0 2.262-.754L26.5 47.3v10.767a.539.539 0 0 1-.539.538h-9.75a.538.538 0 1 0 0 1.076h9.75a1.617 1.617 0 0 0 1.616-1.615V42.459a1.617 1.617 0 0 0-1.613-1.615zM9.481 37.615a.539.539 0 0 1 .539-.538h7.541a.539.539 0 0 1 .539.538v3.229H9.481zm5.387 15.07a1.077 1.077 0 0 1-2.155 0v-1.076h2.155zm6.249-2.691a2.713 2.713 0 0 1-1.616.538H8.08a2.713 2.713 0 0 1-1.616-.538l-5.387-4.037v-3.5a.539.539 0 0 1 .539-.538h24.348a.539.539 0 0 1 .539.538v3.5z" class="cls-1" data-name="Path 417" transform="translate(623 84.186)"/>
    </g>
</svg>
