<svg xmlns="http://www.w3.org/2000/svg" width="7.239" height="10.206" viewBox="0 0 7.239 10.206">
    <defs>
        <style>
            .cls-1{fill:#282c47}
        </style>
    </defs>
    <path id="Path_497" d="M-2.974-10.206H3.6v.014a10.2 10.2 0 0 1-.656.957H1.189A2.3 2.3 0 0 1 1.682-8.2h1.873q.034.007.034.027-.629.943-.643.943H1.729a2.791 2.791 0 0 1-.465 1.169 2.856 2.856 0 0 1-1.073.9 4.244 4.244 0 0 1-1.832.458v.003a2.533 2.533 0 0 0 .431.567L2.037-.212v.185Q2.037 0 2 0H.574q-3.855-4.491-3.855-4.512v-.909l.014-.034a5.845 5.845 0 0 0 .8.048q2.16 0 2.687-1.4a1.131 1.131 0 0 0 .08-.425h-3.91a.024.024 0 0 1-.027-.027q.649-.943.663-.943H.13v-.014A1.82 1.82 0 0 0-.9-9.058a3.222 3.222 0 0 0-.984-.178h-1.739v-.034q.629-.936.649-.936z" class="cls-1" data-name="Path 497" transform="translate(3.637 10.206)"/>
</svg>
