<svg xmlns="http://www.w3.org/2000/svg" width="30.9" height="26.661" viewBox="0 0 30.9 26.661">
    <defs>
        <style>
            .cls-1{fill:#009bde}.cls-2{fill:#282c47}
        </style>
    </defs>
    <g id="salaried-selected" transform="translate(-231.59 -336)">
        <path id="Path_454" d="M8901.175 3509.762v5.578l12.261 3.232.728-1.457h4.123v1.818l12.241-3.253v-6.6l-28.48-.233z" class="cls-1" data-name="Path 454" transform="translate(-8669 -3167)"/>
        <path id="Path_452" d="M95.692 141.99a1.981 1.981 0 0 1-2.025-2.025v-9.186a.612.612 0 0 1 1.224 0v9.186a.759.759 0 0 0 .8.8h25.437a.759.759 0 0 0 .8-.8v-9.186a.612.612 0 0 1 1.224 0v9.186a1.981 1.981 0 0 1-2.025 2.025zm14.838-7.773a.573.573 0 0 0 .612-.612v-2.337l11.167-2.489a2.022 2.022 0 0 0 1.552-1.957V122.3a1.981 1.981 0 0 0-2.025-2.025H94.985a1.98 1.98 0 0 0-2.025 2.025v4.522a2.022 2.022 0 0 0 1.551 1.957l11.168 2.489v2.337a.573.573 0 0 0 .612.612zm-3.628-4.239h3.016v3.016H106.9zm-.612-1.224a.573.573 0 0 0-.612.612v.684l-10.854-2.428a.782.782 0 0 1-.641-.8V122.3a.759.759 0 0 1 .8-.8h26.85a.759.759 0 0 1 .8.8v4.522a.781.781 0 0 1-.639.8l-10.856 2.428v-.684a.573.573 0 0 0-.612-.612zm7.678-10.694v-.707a1.987 1.987 0 0 0-2.025-2.025h-7.066a1.981 1.981 0 0 0-2.025 2.025v.707a.612.612 0 1 0 1.224 0v-.707a.759.759 0 0 1 .8-.8h7.066a.759.759 0 0 1 .8.8v.707a.612.612 0 1 0 1.224 0z" class="cls-2" data-name="Path 452" transform="translate(138.63 220.671)"/>
    </g>
</svg>
