<svg xmlns="http://www.w3.org/2000/svg" width="14.049" height="18.019" viewBox="0 0 14.049 18.019">
    <defs>
        <style>
            .cls-1{fill:#e8e8e8}.cls-2{fill:rgba(146,149,167,.8)}.cls-3{fill:#9295a7}
        </style>
    </defs>
    <g id="Group_288" data-name="Group 288" transform="translate(-815.795 -94.64)">
        <path id="Path_456" d="M160.156 174.237l-.893.386-.776-.338a9.046 9.046 0 0 1-5.422-8.279v-3.365l-1.439.789v4.495a9.046 9.046 0 0 0 5.422 8.279l.776.338.893-.386a9.061 9.061 0 0 0 4.388-3.921 9.09 9.09 0 0 1-2.949 2.002z" class="cls-1" data-name="Path 456" transform="translate(664.881 -64.623)"/>
        <path id="Path_457" d="M201.856 222.69a.373.373 0 0 1-.284-.131l-1.773-2.077a.375.375 0 0 1 .57-.487l1.536 1.8 3.846-3.129a.375.375 0 0 1 .609.329.372.372 0 0 1-.136.252l-4.13 3.36a.374.374 0 0 1-.236.084z" class="cls-2" data-name="Path 457" transform="translate(619.913 -116.938)"/>
        <path id="Path_458" d="M147.576 128.535a.371.371 0 0 1-.15-.031l-.91-.4a9.758 9.758 0 0 1-5.848-8.93v-4.694a.375.375 0 0 1 .194-.329l6.557-3.593a.374.374 0 0 1 .356 0l6.743 3.593a.374.374 0 0 1 .2.331v4.6a9.717 9.717 0 0 1-5.967 8.977l-1.025.443a.372.372 0 0 1-.15.033zm-6.159-9.358a9.008 9.008 0 0 0 5.4 8.243l.76.332.877-.379a8.972 8.972 0 0 0 5.514-8.289v-4.376l-6.366-3.392-6.184 3.39z" class="cls-3" data-name="Path 458" transform="translate(675.127 -15.876)"/>
    </g>
</svg>
