<svg xmlns="http://www.w3.org/2000/svg" width="12.467" height="15.934" viewBox="0 0 12.467 15.934">
    <defs>
        <style>
            .cls-1{fill:rgba(0,155,222,.2)}.cls-2{fill:#4b70b8;stroke:#4b70b8;stroke-width:.2px}
        </style>
    </defs>
    <g id="Group_380" data-name="Group 380" transform="translate(-815.695 -94.54)">
        <path id="Path_456" d="M159.074 172.766l-.78.337-.678-.3a7.9 7.9 0 0 1-4.735-7.229v-2.938l-1.256.689v3.925a7.9 7.9 0 0 0 4.735 7.229l.677.3.78-.337a7.911 7.911 0 0 0 3.832-3.424 7.938 7.938 0 0 1-2.575 1.748z" class="cls-1" data-name="Path 456" transform="translate(664.791 -65.051)"/>
        <path id="Path_457" d="M201.584 222.169a.326.326 0 0 1-.248-.115l-1.548-1.813a.327.327 0 0 1 .5-.425l1.341 1.57 3.358-2.732a.327.327 0 0 1 .532.287.325.325 0 0 1-.119.22l-3.606 2.934a.327.327 0 0 1-.206.073z" class="cls-2" data-name="Path 457" transform="translate(619.428 -117.826)"/>
        <path id="Path_458" d="M146.7 126.25a.325.325 0 0 1-.131-.027l-.795-.346a8.521 8.521 0 0 1-5.107-7.8v-4.1a.327.327 0 0 1 .17-.287l5.725-3.137a.327.327 0 0 1 .311 0l5.888 3.137a.327.327 0 0 1 .173.289V118a8.484 8.484 0 0 1-5.211 7.839l-.9.387a.324.324 0 0 1-.123.024zm-5.378-8.171a7.866 7.866 0 0 0 4.714 7.2l.664.29.766-.331a7.834 7.834 0 0 0 4.815-7.238v-3.821l-5.559-2.962-5.4 2.96z" class="cls-2" data-name="Path 458" transform="translate(675.127 -15.876)"/>
    </g>
</svg>
