<svg xmlns="http://www.w3.org/2000/svg" width="26.755" height="16.918" viewBox="0 0 26.755 16.918">
    <defs>
        <style>
            .cls-1{fill:#a8d5fe}.cls-2{fill:#20b274}.cls-3{fill:#fff}.cls-4{fill:#4b70b8}.cls-5{fill:none;stroke:#a8d5fe;stroke-linecap:round;stroke-width:1.5px}
        </style>
    </defs>
    <g id="Group_635" data-name="Group 635" transform="translate(.75)">
        <g id="Group_633" data-name="Group 633" transform="translate(4.102)">
            <path id="Path_708" d="M465.462 309.057l-1.86 10.549a1.7 1.7 0 0 1-1.6 1.361h-17.019a1.111 1.111 0 0 1-1.121-1.361l1.86-10.549a1.694 1.694 0 0 1 1.6-1.361h6.125" class="cls-1" data-name="Path 708" transform="translate(-443.841 -304.294)"/>
            <path id="Path_709" d="M475.107 303.312a.486.486 0 0 1 .244.531l-.55 3.12a11.479 11.479 0 0 1-4.932 7.239l-2.3 1.6a.731.731 0 0 1-.9 0l-1.736-1.6a7.766 7.766 0 0 1-2.378-7.239l.55-3.119a.744.744 0 0 1 .431-.531l5.687-2.541a1.255 1.255 0 0 1 1.1 0z" class="cls-2" data-name="Path 709" transform="translate(-453.457 -300.647)"/>
            <ellipse id="Ellipse_79" cx="3.337" cy="2.799" class="cls-3" data-name="Ellipse 79" rx="3.337" ry="2.799" transform="rotate(-41.766 14.086 -10.897)"/>
            <path id="Path_710" d="M472.882 314.276a.282.282 0 0 1-.223-.1l-.459-.557a.353.353 0 0 1 .085-.483.341.341 0 0 1 .483 0l.261.317 1.682-1.43a.34.34 0 0 1 .483 0 .353.353 0 0 1-.086.483l-1.965 1.67a.4.4 0 0 1-.261.1z" class="cls-2" data-name="Path 710" transform="translate(-458.481 -306.481)"/>
            <g id="Group_632" data-name="Group 632" transform="translate(1.574 5.444)">
                <path id="Path_711" d="M453.253 328.119h-5.368a.278.278 0 0 1-.28-.34.423.423 0 0 1 .4-.34h5.368a.278.278 0 0 1 .281.34.424.424 0 0 1-.4.34z" class="cls-4" data-name="Path 711" transform="translate(-447.36 -319.952)"/>
                <path id="Path_712" d="M450.035 330.941h-2.647a.278.278 0 0 1-.28-.34.424.424 0 0 1 .4-.34h2.647a.277.277 0 0 1 .28.34.423.423 0 0 1-.4.34z" class="cls-4" data-name="Path 712" transform="translate(-447.102 -321.412)"/>
                <path id="Path_713" d="M453.77 317.146l-1.08-.583a.366.366 0 0 1-.179-.4l.081-.458c.048-.045.093-.093.137-.142a3.367 3.367 0 0 0 .5-.73.463.463 0 0 0 .325-.348l.086-.488a.31.31 0 0 0-.076-.27l.124-.705s.338-1.1-1.167-1.1-1.555 1.1-1.555 1.1l-.124.7a.444.444 0 0 0-.171.27l-.086.488a.3.3 0 0 0 .117.307 2.014 2.014 0 0 0 .286.913l-.079.446a.554.554 0 0 1-.3.39l-1.208.594a1.223 1.223 0 0 0-.669.859l-.07.4h5.438l.066-.371a.8.8 0 0 0-.396-.872z" class="cls-4" data-name="Path 713" transform="translate(-447.906 -311.927)"/>
            </g>
        </g>
        <path id="Line_52" d="M4.826 0H0" class="cls-5" data-name="Line 52" transform="translate(.483 16.168)"/>
        <path id="Line_53" d="M4.826 0H0" class="cls-5" data-name="Line 53" transform="translate(0 13.755)"/>
        <path id="Line_54" d="M2.896 0H0" class="cls-5" data-name="Line 54" transform="translate(2.896 11.342)"/>
    </g>
</svg>
