<svg xmlns="http://www.w3.org/2000/svg" width="54.287" height="52.024" viewBox="0 0 54.287 52.024">
    <defs>
        <style>
            .cls-1{fill:#fff}
        </style>
    </defs>
    <path id="Path_537" d="M107.852 93.1a5.025 5.025 0 0 0-1.473-3.56 5.616 5.616 0 0 0 1.448-4.318 5.847 5.847 0 0 0-5.9-5.128H87.956a32.522 32.522 0 0 0 1.8-9.048c0-4.906-4.169-9.048-6.786-9.048a7.1 7.1 0 0 0-4.1 1.377 1.132 1.132 0 0 0-.425.884v7.67L71.93 86.044l-.269.138v-.432a1.131 1.131 0 0 0-1.131-1.131H59.22a5.66 5.66 0 0 0-5.655 5.655v18.1a5.66 5.66 0 0 0 5.655 5.655h6.786a5.668 5.668 0 0 0 5.322-3.739 14.747 14.747 0 0 0 5.988 1.477h20.762a5.2 5.2 0 0 0 5.125-3.949 5.106 5.106 0 0 0-.407-3.4 5.07 5.07 0 0 0 2.264-6.786 5.069 5.069 0 0 0 2.792-4.532zm-41.846 18.663H59.22a3.4 3.4 0 0 1-3.393-3.393v-18.1a3.4 3.4 0 0 1 3.393-3.393H69.4v21.493a3.4 3.4 0 0 1-3.394 3.393zm37.076-15.87a1.131 1.131 0 0 0-.647 1.948 2.8 2.8 0 0 1-1.613 4.838 1.131 1.131 0 0 0-.647 1.948 2.8 2.8 0 0 1 .819 2.7 2.927 2.927 0 0 1-2.916 2.176H77.315a11.633 11.633 0 0 1-5.655-1.652v-19.14l1.637-.819a1.13 1.13 0 0 0 .52-.536l6.786-14.7a1.151 1.151 0 0 0 .1-.475v-7.3a4.77 4.77 0 0 1 2.262-.613c1.24 0 4.524 3.081 4.524 6.786 0 3.981-2.167 9.719-2.187 9.776a1.129 1.129 0 0 0 1.056 1.534h15.564a3.571 3.571 0 0 1 3.646 3.074 3.379 3.379 0 0 1-1.61 3.2 1.133 1.133 0 0 0 .077 1.97 2.8 2.8 0 0 1-.959 5.291z" class="cls-1" data-name="Path 537" transform="translate(-53.565 -62)"/>
</svg>
