<svg xmlns="http://www.w3.org/2000/svg" width="20.336" height="22.369" viewBox="0 0 20.336 22.369">
    <path id="prefix__Path_716" d="M58.081 45.324a6.353 6.353 0 01-3.18-.853 6.443 6.443 0 01-2.283-2.245l-.022-.037h-6.025a2.431 2.431 0 01-2.439-2.444V25.418a2.454 2.454 0 012.439-2.463h7.576a.4.4 0 01.287.122l4.779 5.018a.417.417 0 01.115.271v4.324l.061.013a6.377 6.377 0 01-1.308 12.621zm0-11.965a5.592 5.592 0 105.592 5.592 5.6 5.6 0 00-5.587-5.593zm-11.587 8.049H52.2l-.045-.107a6.365 6.365 0 01-.278-3.848l.024-.1h-4.053a.393.393 0 010-.785h4.313l.02-.047A7.34 7.34 0 0153 35.085l.086-.121h-5.238a.393.393 0 110-.785h5.99l.022-.019a6.464 6.464 0 014.231-1.6c.065 0 .129 0 .2.009s.115.008.177.01h.079v-3.816h-2.8a1.993 1.993 0 01-1.989-1.993v-3.03h-7.187a1.668 1.668 0 00-1.654 1.677v14.327a1.665 1.665 0 001.577 1.656zM54.54 26.77a1.207 1.207 0 001.2 1.208H58l-3.46-3.644zm-1.94 5.842a.393.393 0 000-.785h-4.752a.393.393 0 000 .785zm5.88 9.512V36.8l2.061 2.222a.4.4 0 00.287.126.4.4 0 00.266-.106.392.392 0 00.02-.554l-2.755-2.952a.389.389 0 00-.573 0l-2.751 2.953a.382.382 0 00-.1.278.393.393 0 00.393.38.408.408 0 00.295-.125L57.7 36.8v5.32a.393.393 0 00.785 0z" data-name="Path 716" transform="translate(-44.132 -22.955)" style="fill:#fff"/>
</svg>
