<svg xmlns="http://www.w3.org/2000/svg" width="37.687" height="37.686" viewBox="0 0 37.687 37.686">
    <defs>
        <style>
            .cls-1{fill:#a8d5fe}.cls-2{fill:#4b70b8}
        </style>
    </defs>
    <g id="Group_641" data-name="Group 641" transform="translate(2.209 3.086)">
        <path id="Shape" d="M92.659 74.721v17.791a3.9 3.9 0 0 1-3.9 3.9H67.968a3.9 3.9 0 0 1-3.9-3.9V74.968l-.117-.149 14.413-11.638z" class="cls-1" transform="translate(-61.577 -61.811)"/>
        <path id="Shape-2" d="M41 21.483a1.942 1.942 0 0 1-2.736.286l-1.378-1.111L22.6 9.118 8.184 20.755 6.93 21.769a1.949 1.949 0 1 1-2.456-3.028L21.368 5.1a1.955 1.955 0 0 1 2.456 0l16.888 13.641A1.944 1.944 0 0 1 41 21.483z" class="cls-2" data-name="Shape" transform="translate(-5.962 -7.748)"/>
        <path id="Shape-3" d="M186.254 311.842h7.8a1.3 1.3 0 0 1 1.3 1.3v13h-10.4v-13a1.3 1.3 0 0 1 1.3-1.3z" class="cls-2" data-name="Shape" transform="translate(-173.367 -291.538)"/>
    </g>
</svg>
