<svg xmlns="http://www.w3.org/2000/svg" width="51.972" height="63.357" viewBox="0 0 51.972 63.357">
    <defs>
        <style>
            .cls-1{fill:#282c47}
        </style>
    </defs>
    <path id="Path_554" d="M113.533 55.6a1.238 1.238 0 1 1-1.238 1.237 1.238 1.238 0 0 1 1.238-1.237zM87.547 76.634a25.986 25.986 0 1 1 32.233 25.226c.2 1.747.861 3.891 1.679 4.709l.016.016a11.622 11.622 0 0 1 5.321 1.08 5.356 5.356 0 0 1 2.823 5.1 1.238 1.238 0 0 1-1.237 1.235h-29.7a1.238 1.238 0 0 1-1.237-1.237 5.355 5.355 0 0 1 2.824-5.1 11.607 11.607 0 0 1 5.32-1.08l.016-.016c.818-.818 1.482-2.961 1.679-4.708a26.076 26.076 0 0 1-19.737-25.225zm18.562 32.421c-4.112 0-5.606.951-6.038 2.475h26.923a2.6 2.6 0 0 0-1.372-1.686 10.234 10.234 0 0 0-4.664-.789zm12.434-2.475a14.653 14.653 0 0 1-1.193-4.241 26.084 26.084 0 0 1-7.634 0 14.656 14.656 0 0 1-1.193 4.241zm-9.714-6.907h.007a23.74 23.74 0 0 0 9.395 0h.006a23.511 23.511 0 1 0-9.408 0zM97 63.64a21.182 21.182 0 0 1 11.314-7.388 1.237 1.237 0 1 1 .614 2.4 18.693 18.693 0 0 0-9.984 6.521A1.237 1.237 0 0 1 97 63.64zm16.533-.618a13.612 13.612 0 1 1-13.612 13.612 13.627 13.627 0 0 1 13.612-13.612zm0 24.749A11.137 11.137 0 1 0 102.4 76.634a11.15 11.15 0 0 0 11.133 11.137zm0-19.8a8.662 8.662 0 1 1-8.662 8.662 8.672 8.672 0 0 1 8.662-8.661zm0 14.849a6.187 6.187 0 1 0-6.187-6.187 6.194 6.194 0 0 0 6.187 6.188z" class="cls-1" data-name="Path 554" transform="translate(-87.547 -50.648)"/>
</svg>
