<svg xmlns="http://www.w3.org/2000/svg" width="14.194" height="16.021" viewBox="0 0 14.194 16.021">
    <defs>
        <style>
            .cls-1{fill:#4b70b8}
        </style>
    </defs>
    <path id="Path_553" d="M97.228 73.77a3.429 3.429 0 0 1-.421-.026v-1.613a2.6 2.6 0 0 1 .438-.035 1 1 0 0 1 .689.2.83.83 0 0 1 .222.642.806.806 0 0 1-.222.634 1.051 1.051 0 0 1-.706.198zm3.992-2.541V75.9a.9.9 0 0 1-.9.9h-.389V80a.633.633 0 0 1-.628.628H88.937a.633.633 0 0 1-.628-.628v-3.2h-.385a.9.9 0 0 1-.9-.9v-4.674a.9.9 0 0 1 .9-.9h.385v-5.1a.633.633 0 0 1 .628-.628h7.591a.317.317 0 0 1 .07.009l.017.006a.322.322 0 0 1 .062.026l.025.015a.316.316 0 0 1 .063.052l3.094 3.532a.308.308 0 0 1 .074.2.26.26 0 0 1 0 .035v1.853h.385a.9.9 0 0 1 .902.903zM99.308 76.8H88.94v3.02h10.368zm-7.522-4.573L89.8 75.193v.516h3.227v-.778h-2.01L93 71.961v-.516h-3.164v.778zm3.028 3.486v-4.268h-.939v4.264zm1.993 0v-1.251q.282.012.412.012a2.116 2.116 0 0 0 1.383-.389 1.411 1.411 0 0 0 .467-1.149 1.4 1.4 0 0 0-.474-1.167 2.294 2.294 0 0 0-1.436-.374 6.771 6.771 0 0 0-1.291.127v4.189zm2.506-6.949h-2.775a.317.317 0 0 1-.317-.317v-3.219H88.94l.006 5.1h10.367z" class="cls-1" data-name="Path 553" transform="translate(-87.026 -64.6)"/>
</svg>
